<?xml version="1.0" standalone="no"?>
<!DOCTYPE svg PUBLIC "-//W3C//DTD SVG 20010904//EN"
 "http://www.w3.org/TR/2001/REC-SVG-20010904/DTD/svg10.dtd">
<svg version="1.0" xmlns="http://www.w3.org/2000/svg"
 width="2954.000000pt" height="2954.000000pt" viewBox="0 0 2954.000000 2954.000000"
 preserveAspectRatio="xMidYMid meet">
<metadata>
Created by potrace 1.11, written by Peter Selinger 2001-2013
</metadata>
<g transform="translate(0.000000,2954.000000) scale(0.100000,-0.100000)"
fill="#000000" stroke="none">
<path d="M21307 19454 c-1 -1 -85 -4 -187 -8 -102 -3 -194 -8 -205 -10 -11 -2
-56 -7 -100 -10 -44 -4 -91 -9 -105 -11 -31 -6 -72 -12 -130 -20 -260 -36
-702 -154 -925 -245 -16 -7 -39 -16 -50 -20 -563 -218 -1103 -565 -1540 -990
-160 -156 -249 -252 -389 -420 -107 -130 -386 -531 -386 -555 0 -4 -8 -19 -19
-33 -73 -104 -249 -469 -333 -692 -121 -320 -225 -717 -253 -965 -4 -33 -9
-62 -10 -65 -2 -3 -6 -37 -10 -75 -3 -39 -8 -81 -10 -95 -20 -115 -27 -638
-12 -825 16 -196 46 -407 81 -580 17 -82 60 -267 71 -300 13 -42 38 -126 40
-135 15 -72 123 -361 195 -525 316 -714 835 -1372 1445 -1829 50 -37 99 -75
110 -84 10 -8 82 -57 160 -107 364 -238 762 -428 1145 -546 52 -17 115 -36
140 -44 127 -39 330 -84 515 -115 33 -5 69 -12 80 -14 11 -2 49 -7 85 -11 36
-3 76 -8 90 -10 30 -4 162 -16 240 -21 67 -5 484 -4 560 1 82 5 295 25 324 31
10 2 44 6 75 10 31 3 58 8 61 9 3 2 26 6 50 10 92 13 288 56 395 85 61 17 119
33 130 35 39 9 272 88 360 122 324 126 675 310 955 501 88 61 249 179 260 191
3 4 37 31 75 62 147 117 283 246 485 458 14 15 50 56 80 91 30 36 58 67 61 70
50 44 361 484 431 610 14 25 41 72 60 105 59 103 154 295 202 410 26 61 51
119 57 130 20 43 88 236 119 336 17 57 36 118 41 134 25 82 89 362 104 455 3
19 10 60 15 90 13 82 21 139 26 200 3 30 7 66 9 80 23 123 23 775 1 896 -2 11
-7 51 -11 89 -8 80 -11 108 -19 150 -3 17 -10 59 -15 95 -12 74 -11 69 -41
210 -12 58 -26 109 -30 114 -8 8 -637 13 -2590 17 -689 1 -745 0 -755 -15 -5
-10 -41 -66 -80 -124 -79 -122 -251 -385 -370 -569 -139 -213 -355 -546 -490
-753 -71 -110 -193 -297 -270 -415 -77 -119 -173 -266 -213 -328 l-73 -112
1156 -5 1157 -5 -69 -105 c-170 -258 -393 -481 -658 -658 -111 -75 -112 -75
-246 -143 -248 -125 -525 -206 -800 -236 -97 -10 -394 -10 -489 0 -97 11 -230
34 -305 53 -33 9 -67 17 -75 19 -36 8 -161 50 -230 77 -435 172 -824 483
-1082 866 -47 69 -148 239 -148 247 0 3 -18 42 -41 87 -72 148 -165 453 -185
608 -3 19 -7 46 -9 60 -23 123 -23 495 0 620 1 8 6 35 10 60 3 25 9 59 11 75
3 17 16 73 30 125 13 52 26 102 28 110 25 97 163 408 233 525 97 162 207 299
369 461 213 213 504 404 769 505 27 11 59 24 70 29 97 43 389 111 555 127 96
10 385 10 475 0 133 -14 288 -41 335 -57 14 -5 36 -12 50 -14 34 -6 193 -57
205 -66 6 -3 33 -15 60 -25 170 -61 443 -225 613 -367 52 -44 97 -76 101 -71
3 4 19 28 35 53 16 25 68 104 114 175 154 235 286 437 422 648 177 272 227
349 465 714 110 169 212 326 227 350 l27 42 -52 38 c-29 20 -54 40 -57 43 -16
17 -248 172 -355 236 -385 233 -874 440 -1252 529 -10 3 -38 9 -63 16 -65 16
-240 52 -310 64 -64 11 -234 34 -300 40 -36 4 -76 8 -90 11 -29 4 -409 21
-413 18z"/>
<path d="M7958 19445 c-2 -2 -42 -6 -90 -10 -49 -3 -96 -8 -105 -9 -10 -2 -49
-7 -88 -10 -70 -7 -108 -12 -155 -21 -14 -2 -45 -7 -70 -10 -25 -4 -63 -10
-85 -15 -22 -5 -53 -11 -70 -14 -105 -19 -309 -72 -460 -120 -623 -195 -1204
-523 -1709 -965 -44 -39 -357 -351 -391 -391 -90 -104 -197 -236 -262 -325
-40 -55 -77 -104 -81 -110 -4 -5 -37 -56 -74 -112 -215 -325 -402 -712 -528
-1093 -41 -125 -110 -369 -124 -442 -2 -13 -11 -57 -20 -98 -8 -41 -18 -91
-21 -110 -3 -19 -10 -60 -15 -90 -12 -76 -18 -115 -25 -185 -3 -33 -8 -69 -10
-80 -24 -121 -24 -797 0 -923 1 -9 6 -51 10 -92 4 -41 9 -84 11 -95 2 -10 6
-37 9 -60 6 -39 29 -169 40 -230 6 -32 52 -231 65 -280 30 -118 134 -425 183
-545 6 -14 11 -27 12 -30 0 -3 11 -27 23 -54 12 -27 22 -50 22 -53 0 -8 145
-299 178 -358 82 -144 152 -257 221 -360 609 -903 1510 -1567 2541 -1873 153
-46 375 -101 470 -116 19 -3 45 -8 56 -10 51 -11 198 -32 284 -41 30 -3 71 -7
90 -10 185 -23 716 -23 890 0 19 2 58 7 85 10 159 17 343 48 478 79 37 9 79
18 95 21 144 25 535 158 797 270 207 89 524 266 740 414 75 51 324 237 335
250 3 4 21 19 40 35 145 119 361 331 515 506 543 617 937 1434 1075 2225 5 33
12 69 14 80 2 11 7 42 10 68 4 27 9 56 11 65 1 10 6 46 10 82 4 36 9 79 11 95
25 205 24 770 -1 940 -2 17 -7 48 -9 70 -16 139 -59 389 -81 470 -1 6 -6 29
-10 53 l-8 42 -101 1 c-55 0 -807 2 -1671 4 l-1570 4 -35 -55 c-19 -31 -85
-133 -147 -227 -120 -185 -284 -438 -498 -767 -48 -74 -119 -184 -159 -244
-39 -61 -108 -166 -153 -235 -45 -69 -124 -191 -176 -271 -52 -80 -134 -206
-182 -280 -48 -74 -102 -157 -120 -185 l-33 -50 1154 -3 c635 -1 1154 -5 1154
-8 0 -7 -41 -76 -50 -84 -3 -3 -18 -25 -34 -50 -90 -139 -289 -358 -438 -483
-165 -137 -384 -270 -583 -354 -97 -41 -291 -106 -349 -117 -12 -2 -41 -9 -66
-15 -69 -15 -141 -27 -220 -36 -30 -3 -73 -8 -95 -10 -51 -6 -322 -6 -355 -1
-14 3 -55 7 -92 11 -82 8 -114 13 -238 39 -41 8 -119 29 -173 45 -491 152
-911 452 -1218 871 -207 283 -361 655 -413 1000 -4 25 -9 56 -11 70 -17 107
-23 401 -11 495 3 22 8 67 12 100 3 33 8 69 10 80 2 11 7 36 10 55 3 19 17 78
30 130 146 593 526 1110 1052 1434 301 185 642 299 997 332 141 14 505 7 534
-10 3 -2 32 -7 63 -10 82 -10 276 -59 398 -101 133 -46 360 -156 476 -231 77
-50 189 -129 204 -144 20 -21 129 -110 134 -110 3 0 34 44 69 97 34 54 107
166 162 250 55 84 159 243 230 353 242 373 489 754 657 1010 52 80 113 174
136 210 l42 65 -22 18 c-59 47 -263 190 -348 244 -285 181 -640 356 -905 447
-44 16 -89 32 -100 36 -69 28 -278 88 -435 126 -154 37 -451 87 -590 99 -36 3
-90 8 -120 11 -58 7 -636 14 -642 9z"/>
<path d="M14628 19445 c-2 -1 -28 -6 -58 -10 -30 -4 -65 -8 -77 -10 -48 -7
-205 -57 -282 -90 -224 -95 -410 -238 -564 -432 -68 -86 -102 -141 -156 -249
-35 -71 -114 -281 -111 -294 1 -5 -5 -41 -15 -90 -11 -51 -19 -158 -19 -250 0
-389 149 -741 429 -1016 228 -223 513 -358 840 -399 55 -7 266 -8 305 -1 14 2
48 8 75 12 28 4 55 8 60 10 6 1 25 5 44 8 19 4 42 11 52 17 11 5 19 8 19 5 0
-16 266 101 355 157 70 43 191 141 255 207 94 95 111 116 170 204 154 228 240
497 243 761 1 112 -8 259 -18 287 -2 7 -6 24 -9 38 -46 259 -202 543 -405 738
-185 178 -451 322 -676 366 -16 4 -41 9 -55 11 -82 17 -170 24 -277 23 -67 0
-123 -2 -125 -3z"/>
<path d="M13611 14161 c-1 -944 -2 -2246 -4 -2894 l-2 -1177 35 -1 c196 -3
2282 0 2286 3 6 7 8 5767 2 5773 -3 3 -525 7 -1161 9 l-1155 4 -1 -1717z"/>
</g>
</svg>
