<?xml version="1.0" standalone="no"?>
<!DOCTYPE svg PUBLIC "-//W3C//DTD SVG 20010904//EN"
 "http://www.w3.org/TR/2001/REC-SVG-20010904/DTD/svg10.dtd">
<svg version="1.0" xmlns="http://www.w3.org/2000/svg"
 width="700.000000pt" height="700.000000pt" viewBox="0 0 700.000000 700.000000"
 preserveAspectRatio="xMidYMid meet">
<metadata>
Created by potrace 1.11, written by Peter Selinger 2001-2013
</metadata>
<g transform="translate(0.000000,700.000000) scale(0.100000,-0.100000)"
fill="#000000" stroke="none">
<path d="M1765 4594 c-93 -17 -99 -19 -180 -47 -312 -108 -560 -352 -678 -669
-21 -56 -31 -90 -53 -188 -13 -59 -13 -288 1 -372 62 -371 322 -700 665 -842
59 -24 186 -62 236 -71 82 -14 299 -14 376 0 309 55 578 232 746 489 120 184
176 372 176 596 1 147 -14 268 -33 271 -31 4 -774 3 -780 -1 -9 -5 -312 -465
-353 -535 -4 -7 86 -10 264 -10 148 0 271 -2 273 -5 5 -8 -80 -109 -113 -133
-15 -12 -33 -27 -41 -35 -26 -25 -131 -72 -193 -87 -87 -20 -226 -14 -302 14
-227 81 -378 291 -379 526 0 189 101 368 265 472 184 116 452 104 619 -28 20
-16 41 -29 45 -28 5 0 38 46 74 102 35 56 100 156 143 222 44 66 81 125 84
131 6 15 -116 96 -210 139 -70 32 -217 80 -282 91 -69 12 -303 11 -370 -2z"/>
<path d="M3403 4596 c-94 -30 -167 -94 -211 -186 -23 -46 -27 -68 -26 -140 0
-72 4 -93 28 -140 49 -98 128 -162 230 -185 246 -57 468 177 398 419 -51 178
-245 286 -419 232z"/>
<path d="M4835 4590 c-219 -44 -405 -143 -562 -298 -137 -134 -236 -299 -288
-477 -34 -120 -40 -167 -40 -330 1 -147 11 -210 53 -335 129 -388 471 -679
877 -746 84 -14 313 -9 397 9 457 98 803 461 874 917 18 118 10 346 -15 414
-8 20 -12 21 -392 22 -211 1 -389 -1 -396 -3 -7 -3 -36 -42 -65 -86 -28 -45
-102 -159 -163 -252 -62 -94 -117 -180 -123 -190 -10 -20 -5 -20 263 -19 l273
2 -20 -34 c-27 -46 -126 -136 -190 -172 -167 -96 -402 -89 -564 16 -155 101
-255 279 -256 455 -1 135 23 216 96 327 70 106 221 207 346 230 154 29 340
-14 448 -104 16 -15 33 -26 36 -26 4 0 40 52 81 115 41 63 109 167 150 231 42
63 73 119 70 125 -19 29 -209 132 -313 168 -170 60 -400 76 -577 41z"/>
<path d="M3243 3760 c-17 -5 -18 -38 -19 -688 l-1 -682 275 2 275 3 1 679 c1
499 -2 680 -10 683 -17 6 -499 9 -521 3z"/>
</g>
</svg>
