<?xml version="1.0" encoding="utf-8"?>
<!-- Generator: Adobe Illustrator 22.1.0, SVG Export Plug-In . SVG Version: 6.00 Build 0)  -->
<svg version="1.1" id="Layer_1" xmlns="http://www.w3.org/2000/svg" xmlns:xlink="http://www.w3.org/1999/xlink" x="0px" y="0px"
	 viewBox="0 0 708.7 708.7" style="enable-background:new 0 0 708.7 708.7;" xml:space="preserve">
<style type="text/css">
	.st0{fill:#FFD100;}
	.st1{fill:#0037FF;}
	.st2{fill:#FFFFFF;}
</style>
<!-- <rect width="708.7" height="708.7"/> -->
<g>
	<path class="st2" d="M306,383.1L306,383.1c-12.7,48.1-56.5,83.6-108.6,83.6C135.3,466.7,85,416.4,85,354.4S135.3,242,197.4,242
		c26.1,0,50.1,8.9,69.2,23.9l-31,47.7c-10-9.3-23.4-14.9-38.1-14.9c-31,0-56.2,25.2-56.2,56.2s25.2,56.2,56.2,56.2
		c20.7,0,38.8-11.2,48.5-27.9h-55.6l36.2-55.7l80,0.3c2.1,8.6,3.2,17.5,3.2,26.7C309.7,364.3,308.4,373.9,306,383.1L306,383.1z
		 M326.3,466.6H382l0.1-138.7l-55.6-0.2L326.3,466.6z M354.2,242c-18.9,0-34.2,15.3-34.2,34.2c0,18.9,15.3,34.2,34.2,34.2
		c18.9,0,34.2-15.3,34.2-34.2C388.4,257.3,373.1,242,354.2,242z M619.9,383c2.4-9.2,3.7-18.8,3.7-28.7c0-9.2-1.1-18.1-3.2-26.7
		l-80-0.3L504.2,383h55.6c-9.7,16.7-27.8,27.9-48.5,27.9c-31,0-56.2-25.2-56.2-56.2s25.2-56.2,56.2-56.2c14.7,0,28.1,5.7,38.1,14.9
		l31-47.7c-19.1-14.9-43.1-23.9-69.2-23.9c-62.1,0-112.4,50.3-112.4,112.4s50.3,112.4,112.4,112.4
		C563.4,466.7,607.2,431.2,619.9,383L619.9,383L619.9,383z"/>
</g>
</svg>
